<?xml version="1.0" encoding="utf-8"?>
<!-- Uploaded to: SVG Repo, www.svgrepo.com, Generator: SVG Repo Mixer Tools -->
<svg width="800px" height="800px" viewBox="0 -4 91 91" xmlns="http://www.w3.org/2000/svg">
  <g id="Group_8" data-name="Group 8" transform="translate(-286 -709)">
    <path id="Path_55" data-name="Path 55" d="M344,768l23.669-23.669L344,720.663" fill="#fbb141" stroke="#2d4d68" stroke-linejoin="round" stroke-width="4"/>
    <path id="Path_56" data-name="Path 56" d="M321,711c-.755,0-1.5.034-2.243.084a23.007,23.007,0,0,1-30.673,30.673c-.05.742-.084,1.488-.084,2.243a33,33,0,1,0,33-33Z" fill="#ff514d" stroke="#2d4d68" stroke-linejoin="round" stroke-width="4"/>
    <g id="Group_4" data-name="Group 4">
      <path id="Path_57" data-name="Path 57" d="M354,721a22.939,22.939,0,0,0-8.026,1.442,32.966,32.966,0,0,1,0,43.116A23,23,0,1,0,354,721Z" fill="none"/>
    </g>
    <line id="Line_17" data-name="Line 17" y2="13" transform="translate(321 777)" fill="none" stroke="#2d4d68" stroke-linecap="round" stroke-linejoin="round" stroke-width="4"/>
    <line id="Line_18" data-name="Line 18" x2="13" transform="translate(321 790)" fill="none" stroke="#2d4d68" stroke-linecap="round" stroke-linejoin="round" stroke-width="4"/>
    <path id="Path_60" data-name="Path 60" d="M345.974,722.442a23.005,23.005,0,0,0,0,43.116,32.966,32.966,0,0,0,0-43.116Z" fill="#ffffff" stroke="#2d4d68" stroke-miterlimit="10" stroke-width="4"/>
  </g>
</svg>